<?xml version="1.0" encoding="UTF-8" standalone="no"?>
<svg xmlns="http://www.w3.org/2000/svg" xmlns:xlink="http://www.w3.org/1999/xlink" width="48" height="48">
  <defs>
    <linearGradient id="c">
      <stop offset="0" stop-color="#ff0202"/>
      <stop offset="1" stop-color="#ff9b9b"/>
    </linearGradient>
    <linearGradient id="f">
      <stop offset="0" stop-color="#fff"/>
      <stop offset="1" stop-color="#fff" stop-opacity="0"/>
    </linearGradient>
    <linearGradient id="e">
      <stop offset="0" stop-color="#fff"/>
      <stop offset="1" stop-color="#dbdbdb"/>
    </linearGradient>
    <linearGradient id="d">
      <stop offset="0"/>
      <stop offset="1" stop-opacity="0"/>
    </linearGradient>
    <linearGradient id="b">
      <stop offset="0" stop-color="#c00"/>
      <stop offset="1" stop-color="#b30000"/>
    </linearGradient>
    <linearGradient id="a">
      <stop offset="0" stop-color="#ff8b8b"/>
      <stop offset="1" stop-color="#ec1b1b"/>
    </linearGradient>
    <linearGradient xlink:href="#a" id="i" x1="15.737001" x2="53.570126" y1="12.5036" y2="47.374317" gradientTransform="translate(0 -2)" gradientUnits="userSpaceOnUse"/>
    <linearGradient xlink:href="#b" id="h" x1="23.995985" x2="41.047836" y1="20.105337" y2="37.959785" gradientTransform="translate(0 -2)" gradientUnits="userSpaceOnUse"/>
    <linearGradient xlink:href="#c" id="l" x1="21.75" x2="24.30225" y1="15.80225" y2="35.05225" gradientTransform="translate(0 -2)" gradientUnits="userSpaceOnUse"/>
    <radialGradient xlink:href="#d" id="g" cx="25.125" cy="36.75" r="15.75" fx="25.125" fy="36.75" gradientTransform="matrix(1 0 0 .59524 0 14.875)" gradientUnits="userSpaceOnUse"/>
    <radialGradient xlink:href="#e" id="k" cx="24.30225" cy="33.30225" r="12.30225" fx="24.30225" fy="33.30225" gradientTransform="translate(-16.86529 -25.11111) scale(1.69398)" gradientUnits="userSpaceOnUse"/>
    <radialGradient xlink:href="#f" id="j" cx="16.75" cy="10.666344" r="21.25" fx="16.75" fy="10.666344" gradientTransform="matrix(4.15496 0 0 3.19872 -52.84553 -23.50921)" gradientUnits="userSpaceOnUse"/>
  </defs>
  <path fill="url(#g)" fill-rule="evenodd" d="M40.875 36.75a15.75 9.375 0 1 1-31.5 0 15.75 9.375 0 1 1 31.5 0z" color="#000" opacity=".63068183" overflow="visible" style="marker:none" transform="matrix(1.1738 0 0 .6 -5.265866 19.575)"/>
  <path fill="url(#h)" fill-rule="evenodd" stroke="#860000" d="M15.591006.4919213h17.085305L45.497585 13.586385V31.48003L32.848986 43.496929H15.418649L2.4943857 30.658264V13.464078L15.591006.4919213z"/>
  <path fill="none" stroke="url(#i)" stroke-width="1.00000024" d="M16.020655 1.5003424h16.227908L44.496456 13.922717v17.114284L32.638472 42.48783H15.870253L3.5090792 30.208718V13.84561L16.020655 1.5003424z" opacity=".81318683"/>
  <path fill="url(#j)" fill-rule="evenodd" d="M15.6875.75 2.75 13.5625v17l2.9375 2.90625c16.762541.057549 16.477165-13.018683 39.5625-11.875V13.6875L32.5625.75h-16.875z" opacity=".28977272"/>
  <path fill="url(#k)" fill-rule="evenodd" stroke="url(#l)" stroke-linecap="round" stroke-linejoin="round" stroke-width=".99999958" d="M16.767175 10.5 12.5 14.767175l7.535075 7.535075L12.5 29.837325l4.267175 4.267176 7.535075-7.535076 7.535075 7.535076 4.267176-4.267176-7.535076-7.535075 7.535076-7.535075L31.837325 10.5l-7.535075 7.535075L16.767175 10.5z"/>
</svg>